<svg xmlns="http://www.w3.org/2000/svg" viewBox="0 0 1863.1125000000002 2870.75" width="1863.1125000000002" height="2870.75" style="--bg:#1a1b26;--fg:#a9b1d6;--line:#3d59a1;--accent:#7aa2f7;--muted:#565f89;background:var(--bg)">
<style>
  @import url('https://fonts.googleapis.com/css2?family=Inter:wght@400;500;600;700&amp;display=swap');
  text { font-family: 'Inter', system-ui, sans-serif; }
  svg {
    /* Derived from --bg and --fg (overridable via --line, --accent, etc.) */
    --_text:          var(--fg);
    --_text-sec:      var(--muted, color-mix(in srgb, var(--fg) 60%, var(--bg)));
    --_text-muted:    var(--muted, color-mix(in srgb, var(--fg) 40%, var(--bg)));
    --_text-faint:    color-mix(in srgb, var(--fg) 25%, var(--bg));
    --_line:          var(--line, color-mix(in srgb, var(--fg) 30%, var(--bg)));
    --_arrow:         var(--accent, color-mix(in srgb, var(--fg) 50%, var(--bg)));
    --_node-fill:     var(--surface, color-mix(in srgb, var(--fg) 3%, var(--bg)));
    --_node-stroke:   var(--border, color-mix(in srgb, var(--fg) 20%, var(--bg)));
    --_group-fill:    var(--bg);
    --_group-hdr:     color-mix(in srgb, var(--fg) 5%, var(--bg));
    --_inner-stroke:  color-mix(in srgb, var(--fg) 12%, var(--bg));
    --_key-badge:     color-mix(in srgb, var(--fg) 10%, var(--bg));
  }
</style>
<defs>
  <marker id="arrowhead" markerWidth="8" markerHeight="4.8" refX="8" refY="2.4" orient="auto">
    <polygon points="0 0, 8 2.4, 0 4.8" fill="var(--_arrow)" />
  </marker>
  <marker id="arrowhead-start" markerWidth="8" markerHeight="4.8" refX="0" refY="2.4" orient="auto-start-reverse">
    <polygon points="8 0, 0 2.4, 8 4.8" fill="var(--_arrow)" />
  </marker>
</defs>
<rect x="40" y="354.54999999999995" width="261.90000000000003" height="267.99999999999994" rx="0" ry="0" fill="var(--_group-fill)" stroke="var(--_node-stroke)" stroke-width="1" />
<rect x="40" y="354.54999999999995" width="261.90000000000003" height="28" rx="0" ry="0" fill="var(--_group-hdr)" stroke="var(--_node-stroke)" stroke-width="1" />
<text x="52" y="368.54999999999995" dy="0.35em" font-size="12" font-weight="600" fill="var(--_text-sec)">&quot;1. Ingestion&quot;</text>
<rect x="172.96250000000015" y="891.5500000000001" width="731.275" height="986.2" rx="0" ry="0" fill="var(--_group-fill)" stroke="var(--_node-stroke)" stroke-width="1" />
<rect x="172.96250000000015" y="891.5500000000001" width="731.275" height="28" rx="0" ry="0" fill="var(--_group-hdr)" stroke="var(--_node-stroke)" stroke-width="1" />
<text x="184.96250000000015" y="905.5500000000001" dy="0.35em" font-size="12" font-weight="600" fill="var(--_text-sec)">&quot;2. Enrichment Pipeline&quot;</text>
<rect x="190.15000000000006" y="1938.75" width="351.8625" height="268" rx="0" ry="0" fill="var(--_group-fill)" stroke="var(--_node-stroke)" stroke-width="1" />
<rect x="190.15000000000006" y="1938.75" width="351.8625" height="28" rx="0" ry="0" fill="var(--_group-hdr)" stroke="var(--_node-stroke)" stroke-width="1" />
<text x="202.15000000000006" y="1952.75" dy="0.35em" font-size="12" font-weight="600" fill="var(--_text-sec)">&quot;3. Async Dispatch&quot;</text>
<rect x="562.0125" y="1938.75" width="397.74999999999994" height="580" rx="0" ry="0" fill="var(--_group-fill)" stroke="var(--_node-stroke)" stroke-width="1" />
<rect x="562.0125" y="1938.75" width="397.74999999999994" height="28" rx="0" ry="0" fill="var(--_group-hdr)" stroke="var(--_node-stroke)" stroke-width="1" />
<text x="574.0125" y="1952.75" dy="0.35em" font-size="12" font-weight="600" fill="var(--_text-sec)">&quot;4. Async Embedding&quot;</text>
<rect x="1206.5625" y="40" width="616.5500000000002" height="2790.75" rx="0" ry="0" fill="var(--_group-fill)" stroke="var(--_node-stroke)" stroke-width="1" />
<rect x="1206.5625" y="40" width="616.5500000000002" height="28" rx="0" ry="0" fill="var(--_group-hdr)" stroke="var(--_node-stroke)" stroke-width="1" />
<text x="1218.5625" y="54" dy="0.35em" font-size="12" font-weight="600" fill="var(--_text-sec)">&quot;5. Similarity &amp; Clustering&quot;</text>
<rect x="214.6875" y="703.55" width="893.4000000000001" height="107" rx="0" ry="0" fill="var(--_group-fill)" stroke="var(--_node-stroke)" stroke-width="1" />
<rect x="214.6875" y="703.55" width="893.4000000000001" height="28" rx="0" ry="0" fill="var(--_group-hdr)" stroke="var(--_node-stroke)" stroke-width="1" />
<text x="226.6875" y="717.55" dy="0.35em" font-size="12" font-weight="600" fill="var(--_text-sec)">&quot;6. PostgreSQL&quot;</text>
<rect x="321.9000000000001" y="354.54999999999995" width="711.1500000000001" height="267.99999999999994" rx="0" ry="0" fill="var(--_group-fill)" stroke="var(--_node-stroke)" stroke-width="1" />
<rect x="321.9000000000001" y="354.54999999999995" width="711.1500000000001" height="28" rx="0" ry="0" fill="var(--_group-hdr)" stroke="var(--_node-stroke)" stroke-width="1" />
<text x="333.9000000000001" y="368.54999999999995" dy="0.35em" font-size="12" font-weight="600" fill="var(--_text-sec)">&quot;7. Console API&quot;</text>
<polyline points="170.95000000000002,446.55 170.95000000000002,566.55" fill="none" stroke="var(--_line)" stroke-width="0.75" marker-end="url(#arrowhead)" />
<polyline points="552.9625000000001,983.55 552.9625000000001,1103.55" fill="none" stroke="var(--_line)" stroke-width="0.75" marker-end="url(#arrowhead)" />
<polyline points="552.9625000000001,1139.55 552.9625000000001,1259.55" fill="none" stroke="var(--_line)" stroke-width="0.75" marker-end="url(#arrowhead)" />
<polyline points="573.7868630737494,1351.9256369262505 573.7868630737494,1392.75 597.5500000000001,1392.75 597.5500000000001,1509.75" fill="none" stroke="var(--_line)" stroke-width="0.75" marker-end="url(#arrowhead)" />
<polyline points="511.48940479305696,1331.2769047930567 511.48940479305696,1392.75 342.9500000000001,1392.75 342.9500000000001,1509.75" fill="none" stroke="var(--_line)" stroke-width="0.75" marker-end="url(#arrowhead)" />
<polyline points="342.9500000000001,1545.75 342.9500000000001,1665.75" fill="none" stroke="var(--_line)" stroke-width="0.75" marker-end="url(#arrowhead)" />
<polyline points="342.9500000000001,1701.75 342.9500000000001,1839.75 495.23750000000007,1839.75" fill="none" stroke="var(--_line)" stroke-width="0.75" marker-end="url(#arrowhead)" />
<polyline points="384.13750000000005,2030.75 384.13750000000005,2050.75 288.925,2050.75 288.925,2150.75" fill="none" stroke="var(--_line)" stroke-width="0.75" marker-end="url(#arrowhead)" />
<polyline points="384.13750000000005,2030.75 384.13750000000005,2050.75 441.45000000000005,2050.75 441.45000000000005,2150.75" fill="none" stroke="var(--_line)" stroke-width="0.75" marker-end="url(#arrowhead)" />
<polyline points="760.8875,2030.75 760.8875,2150.75" fill="none" stroke="var(--_line)" stroke-width="0.75" marker-end="url(#arrowhead)" />
<polyline points="760.8875,2186.75 760.8875,2306.75" fill="none" stroke="var(--_line)" stroke-width="0.75" marker-end="url(#arrowhead)" />
<polyline points="760.8875,2342.75 760.8875,2462.75" fill="none" stroke="var(--_line)" stroke-width="0.75" marker-end="url(#arrowhead)" />
<polyline points="1465.6125000000002,2654.75 1465.6125000000002,2792.75 1576.7875000000001,2792.75" fill="none" stroke="var(--_line)" stroke-width="0.75" marker-end="url(#arrowhead)" />
<polyline points="1678.5875,2774.75 1678.5875,2754.75 1722.875,2754.75 1722.875,221.49696843656415 1620.740531563436,221.49696843656415" fill="none" stroke="var(--_line)" stroke-width="0.75" marker-end="url(#arrowhead)" />
<polyline points="1510.2311832810046,215.0936832810047 1510.2311832810046,293.55 1358.9625,293.55 1358.9625,410.55" fill="none" stroke="var(--_line)" stroke-width="0.75" marker-end="url(#arrowhead)" />
<polyline points="1568.6875,273.55 1568.6875,410.55" fill="none" stroke="var(--_line)" stroke-width="0.75" marker-end="url(#arrowhead)" />
<polyline points="1358.9625,446.55 1358.9625,584.55 1322.4375,584.55" fill="none" stroke="var(--_line)" stroke-width="0.75" marker-end="url(#arrowhead)" />
<polyline points="1568.6875,446.55 1568.6875,584.55 1661.8875000000003,584.55" fill="none" stroke="var(--_line)" stroke-width="0.75" marker-end="url(#arrowhead)" />
<polyline points="488.6000000000001,446.55 488.6000000000001,584.55 613.2125000000002,584.55" fill="none" stroke="var(--_line)" stroke-width="0.75" marker-end="url(#arrowhead)" />
<polyline points="834.1750000000002,446.55 834.1750000000002,584.55 766.7625000000002,584.55" fill="none" stroke="var(--_line)" stroke-width="0.75" marker-end="url(#arrowhead)" />
<polyline points="170.95000000000002,602.55 170.95000000000002,775.05 661.3875,775.05" fill="none" stroke="var(--_line)" stroke-width="0.75" marker-end="url(#arrowhead)" />
<polyline points="661.3875,775.05 661.3875,830.55 552.9625000000001,830.55 552.9625000000001,947.55" fill="none" stroke="var(--_line)" stroke-width="0.75" marker-end="url(#arrowhead)" />
<polyline points="661.3875,1821.75 661.3875,1801.75 723.1375,1801.75 723.1375,775.05 661.3875,775.05" fill="none" stroke="var(--_line)" stroke-width="0.75" marker-end="url(#arrowhead)" />
<polyline points="661.3875,1857.75 661.3875,1877.75 384.13750000000005,1877.75 384.13750000000005,1994.75" fill="none" stroke="var(--_line)" stroke-width="0.75" stroke-dasharray="4 4" marker-end="url(#arrowhead)" />
<polyline points="661.3875,1857.75 661.3875,1877.75 760.8875,1877.75 760.8875,1994.75" fill="none" stroke="var(--_line)" stroke-width="0.75" stroke-dasharray="4 4" marker-end="url(#arrowhead)" />
<polyline points="760.8875,2498.75 760.8875,2538.75 1465.6125000000002,2538.75 1465.6125000000002,2618.75" fill="none" stroke="var(--_line)" stroke-width="0.75" marker-end="url(#arrowhead)" />
<polyline points="1492.1625000000001,602.55 1492.1625000000001,775.05 661.3875,775.05" fill="none" stroke="var(--_line)" stroke-width="0.75" marker-end="url(#arrowhead)" />
<polyline points="689.9875000000002,602.55 689.9875000000002,775.05 661.3875,775.05" fill="none" stroke="var(--_line)" stroke-width="0.75" marker-end="url(#arrowhead)" />
<rect x="566.6700000000001" y="1427.75" width="61.760000000000005" height="27" rx="4" ry="4" fill="var(--bg)" stroke="var(--_inner-stroke)" stroke-width="0.5" />
<text x="597.5500000000001" y="1441.25" text-anchor="middle" dy="0.35em" font-size="11" font-weight="400" fill="var(--_text-muted)">&quot;ignore&quot;</text>
<rect x="317.7900000000001" y="1427.75" width="50.32" height="27" rx="4" ry="4" fill="var(--bg)" stroke="var(--_inner-stroke)" stroke-width="0.5" />
<text x="342.9500000000001" y="1441.25" text-anchor="middle" dy="0.35em" font-size="11" font-weight="400" fill="var(--_text-muted)">&quot;full&quot;</text>
<rect x="1336.6625000000001" y="328.55" width="44.6" height="27" rx="4" ry="4" fill="var(--bg)" stroke="var(--_inner-stroke)" stroke-width="0.5" />
<text x="1358.9625" y="342.05" text-anchor="middle" dy="0.35em" font-size="11" font-weight="400" fill="var(--_text-muted)">&quot;yes&quot;</text>
<rect x="1549.2475" y="328.55" width="38.88" height="27" rx="4" ry="4" fill="var(--bg)" stroke="var(--_inner-stroke)" stroke-width="0.5" />
<text x="1568.6875" y="342.05" text-anchor="middle" dy="0.35em" font-size="11" font-weight="400" fill="var(--_text-muted)">&quot;no&quot;</text>
<rect x="94.31000000000002" y="657.55" width="153.28" height="27" rx="4" ry="4" fill="var(--bg)" stroke="var(--_inner-stroke)" stroke-width="0.5" />
<text x="170.95000000000002" y="671.05" text-anchor="middle" dy="0.35em" font-size="11" font-weight="400" fill="var(--_text-muted)">&quot;INSERT\nstatus=pending&quot;</text>
<rect x="504.92250000000007" y="865.55" width="96.08" height="27" rx="4" ry="4" fill="var(--bg)" stroke="var(--_inner-stroke)" stroke-width="0.5" />
<text x="552.9625000000001" y="879.05" text-anchor="middle" dy="0.35em" font-size="11" font-weight="400" fill="var(--_text-muted)">&quot;poll pending&quot;</text>
<rect x="643.6375" y="1302.6499999999999" width="159" height="27" rx="4" ry="4" fill="var(--bg)" stroke="var(--_inner-stroke)" stroke-width="0.5" />
<text x="723.1375" y="1316.1499999999999" text-anchor="middle" dy="0.35em" font-size="11" font-weight="400" fill="var(--_text-muted)">&quot;UPDATE\nstatus=enriched&quot;</text>
<rect x="344.67750000000007" y="1912.75" width="78.92" height="27" rx="4" ry="4" fill="var(--bg)" stroke="var(--_inner-stroke)" stroke-width="0.5" />
<text x="384.13750000000005" y="1926.25" text-anchor="middle" dy="0.35em" font-size="11" font-weight="400" fill="var(--_text-muted)">&quot;go func()&quot;</text>
<rect x="721.4275" y="1912.75" width="78.92" height="27" rx="4" ry="4" fill="var(--bg)" stroke="var(--_inner-stroke)" stroke-width="0.5" />
<text x="760.8875" y="1926.25" text-anchor="middle" dy="0.35em" font-size="11" font-weight="400" fill="var(--_text-muted)">&quot;go func()&quot;</text>
<rect x="1392.6425000000002" y="657.55" width="199.04000000000002" height="27" rx="4" ry="4" fill="var(--bg)" stroke="var(--_inner-stroke)" stroke-width="0.5" />
<text x="1492.1625000000001" y="671.05" text-anchor="middle" dy="0.35em" font-size="11" font-weight="400" fill="var(--_text-muted)">&quot;UPDATE\nembedding + cluster_id&quot;</text>
<rect x="599.0475000000001" y="657.55" width="181.88" height="27" rx="4" ry="4" fill="var(--bg)" stroke="var(--_inner-stroke)" stroke-width="0.5" />
<text x="689.9875000000002" y="671.05" text-anchor="middle" dy="0.35em" font-size="11" font-weight="400" fill="var(--_text-muted)">&quot;SELECT\nGROUP BY cluster_id&quot;</text>
<rect x="62.000000000000014" y="410.55" width="217.9" height="36" rx="0" ry="0" fill="#3182ce" stroke="#2b6cb0" stroke-width="0.75" />
<rect x="97.75000000000001" y="566.55" width="146.4" height="36" rx="0" ry="0" fill="var(--_node-fill)" stroke="var(--_node-stroke)" stroke-width="0.75" />
<rect x="447.5875000000001" y="947.55" width="210.75000000000003" height="36" rx="0" ry="0" fill="var(--_node-fill)" stroke="var(--_node-stroke)" stroke-width="0.75" />
<rect x="411.8375000000001" y="1103.55" width="282.25" height="36" rx="0" ry="0" fill="var(--_node-fill)" stroke="var(--_node-stroke)" stroke-width="0.75" />
<polygon points="552.9625000000001,1259.55 609.5625000000001,1316.1499999999999 552.9625000000001,1372.7499999999998 496.36250000000007,1316.1499999999999" fill="#d69e2e" stroke="#b7791f" stroke-width="0.75" />
<rect x="219.7000000000001" y="1509.75" width="246.50000000000003" height="36" rx="0" ry="0" fill="var(--_node-fill)" stroke="var(--_node-stroke)" stroke-width="0.75" />
<rect x="198.25000000000009" y="1665.75" width="289.40000000000003" height="36" rx="0" ry="0" fill="var(--_node-fill)" stroke="var(--_node-stroke)" stroke-width="0.75" />
<rect x="495.23750000000007" y="1821.75" width="332.3" height="36" rx="0" ry="0" fill="var(--_node-fill)" stroke="var(--_node-stroke)" stroke-width="0.75" />
<rect x="531.5" y="1509.75" width="132.10000000000002" height="36" rx="0" ry="0" fill="var(--_node-fill)" stroke="var(--_node-stroke)" stroke-width="0.75" />
<rect x="293.06250000000006" y="1994.75" width="182.15" height="36" rx="0" ry="0" fill="#4a5568" stroke="#718096" stroke-width="0.75" />
<rect x="226.45000000000002" y="2150.75" width="124.95" height="36" rx="0" ry="0" fill="var(--_node-fill)" stroke="var(--_node-stroke)" stroke-width="0.75" />
<rect x="375.40000000000003" y="2150.75" width="132.10000000000002" height="36" rx="0" ry="0" fill="var(--_node-fill)" stroke="var(--_node-stroke)" stroke-width="0.75" />
<rect x="637.6375" y="1994.75" width="246.50000000000003" height="36" rx="0" ry="0" fill="#4a5568" stroke="#718096" stroke-width="0.75" />
<rect x="641.2125000000001" y="2150.75" width="239.35000000000002" height="36" rx="0" ry="0" fill="var(--_node-fill)" stroke="var(--_node-stroke)" stroke-width="0.75" />
<rect x="584.0125" y="2306.75" width="353.75" height="36" rx="0" ry="0" fill="var(--_node-fill)" stroke="var(--_node-stroke)" stroke-width="0.75" />
<rect x="730.8875" y="2462.75" width="60" height="36" rx="0" ry="0" fill="var(--_node-fill)" stroke="var(--_node-stroke)" stroke-width="0.75" />
<rect x="1342.3625000000002" y="2618.75" width="246.50000000000003" height="36" rx="0" ry="0" fill="var(--_node-fill)" stroke="var(--_node-stroke)" stroke-width="0.75" />
<rect x="1576.7875000000001" y="2774.75" width="203.60000000000002" height="36" rx="0" ry="0" fill="var(--_node-fill)" stroke="var(--_node-stroke)" stroke-width="0.75" />
<polygon points="1568.6875,96 1657.4625,184.775 1568.6875,273.55 1479.9125,184.775" fill="#d69e2e" stroke="#b7791f" stroke-width="0.75" />
<rect x="1267.8875" y="410.55" width="182.15" height="36" rx="0" ry="0" fill="var(--_node-fill)" stroke="var(--_node-stroke)" stroke-width="0.75" />
<rect x="1474.0375" y="410.55" width="189.3" height="36" rx="0" ry="0" fill="var(--_node-fill)" stroke="var(--_node-stroke)" stroke-width="0.75" />
<rect x="1322.4375" y="566.55" width="339.45000000000005" height="36" rx="0" ry="0" fill="var(--_node-fill)" stroke="var(--_node-stroke)" stroke-width="0.75" />
<rect x="343.9000000000001" y="410.55" width="289.40000000000003" height="36" rx="0" ry="0" fill="#3182ce" stroke="#2b6cb0" stroke-width="0.75" />
<rect x="657.3000000000002" y="410.55" width="353.75" height="36" rx="0" ry="0" fill="#3182ce" stroke="#2b6cb0" stroke-width="0.75" />
<rect x="613.2125000000002" y="566.55" width="153.55" height="36" rx="0" ry="0" fill="var(--_node-fill)" stroke="var(--_node-stroke)" stroke-width="0.75" />
<rect x="230.6875" y="758.55" width="861.4000000000001" height="33" fill="#2d3748" stroke="none" />
<line x1="230.6875" y1="758.55" x2="230.6875" y2="791.55" stroke="#4a5568" stroke-width="0.75" />
<line x1="1092.0875" y1="758.55" x2="1092.0875" y2="791.55" stroke="#4a5568" stroke-width="0.75" />
<ellipse cx="661.3875" cy="791.55" rx="430.70000000000005" ry="7" fill="#2d3748" stroke="#4a5568" stroke-width="0.75" />
<ellipse cx="661.3875" cy="758.55" rx="430.70000000000005" ry="7" fill="#2d3748" stroke="#4a5568" stroke-width="0.75" />
<text x="170.95000000000002" y="428.55" text-anchor="middle" dy="0.35em" font-size="13" font-weight="500" fill="#fff">&quot;POST /v1/feedback/ingest&quot;</text>
<text x="170.95000000000002" y="584.55" text-anchor="middle" dy="0.35em" font-size="13" font-weight="500" fill="var(--_text)">&quot;Ingest Handler&quot;</text>
<text x="552.9625000000001" y="965.55" text-anchor="middle" dy="0.35em" font-size="13" font-weight="500" fill="var(--_text)">&quot;TryClaim\n(atomic lock)&quot;</text>
<text x="552.9625000000001" y="1121.55" text-anchor="middle" dy="0.35em" font-size="13" font-weight="500" fill="var(--_text)">&quot;LoadForEnrich\n(content + config)&quot;</text>
<text x="552.9625000000001" y="1316.1499999999999" text-anchor="middle" dy="0.35em" font-size="13" font-weight="500" fill="#fff">&quot;Triage&quot;</text>
<text x="342.9500000000001" y="1527.75" text-anchor="middle" dy="0.35em" font-size="13" font-weight="500" fill="var(--_text)">&quot;LLM Client\n(classification)&quot;</text>
<text x="342.9500000000001" y="1683.75" text-anchor="middle" dy="0.35em" font-size="13" font-weight="500" fill="var(--_text)">&quot;Parse + Gate 2\n(whitelist filter)&quot;</text>
<text x="661.3875" y="1839.75" text-anchor="middle" dy="0.35em" font-size="13" font-weight="500" fill="var(--_text)">&quot;persistEnriched\n(tx: feedback + outbox)&quot;</text>
<text x="597.55" y="1527.75" text-anchor="middle" dy="0.35em" font-size="13" font-weight="500" fill="var(--_text)">&quot;Mark Ignored&quot;</text>
<text x="384.13750000000005" y="2012.75" text-anchor="middle" dy="0.35em" font-size="13" font-weight="500" fill="#fff">&quot;fanOut\n(goroutine)&quot;</text>
<text x="288.925" y="2168.75" text-anchor="middle" dy="0.35em" font-size="13" font-weight="500" fill="var(--_text)">&quot;Raw Webhook&quot;</text>
<text x="441.45000000000005" y="2168.75" text-anchor="middle" dy="0.35em" font-size="13" font-weight="500" fill="var(--_text)">&quot;GitHub Issue&quot;</text>
<text x="760.8875" y="2012.75" text-anchor="middle" dy="0.35em" font-size="13" font-weight="500" fill="#fff">&quot;embedAndCluster\n(goroutine)&quot;</text>
<text x="760.8875" y="2168.75" text-anchor="middle" dy="0.35em" font-size="13" font-weight="500" fill="var(--_text)">&quot;EmbeddingClient\nOpenAI API&quot;</text>
<text x="760.8875" y="2324.75" text-anchor="middle" dy="0.35em" font-size="13" font-weight="500" fill="var(--_text)">&quot;POST /v1/embeddings\ntext-embedding-3-small&quot;</text>
<text x="760.8875" y="2480.75" text-anchor="middle" dy="0.35em" font-size="13" font-weight="500" fill="var(--_text)">&quot;[</text>
<text x="1465.6125000000002" y="2636.75" text-anchor="middle" dy="0.35em" font-size="13" font-weight="500" fill="var(--_text)">&quot;FindSimilar\n(cosine &gt; 0.85)&quot;</text>
<text x="1678.5875" y="2792.75" text-anchor="middle" dy="0.35em" font-size="13" font-weight="500" fill="var(--_text)">&quot;HNSW Index\n(pgvector)&quot;</text>
<text x="1568.6875" y="184.775" text-anchor="middle" dy="0.35em" font-size="13" font-weight="500" fill="#fff">&quot;Similar\nfound?&quot;</text>
<text x="1358.9625" y="428.55" text-anchor="middle" dy="0.35em" font-size="13" font-weight="500" fill="var(--_text)">&quot;Inherit\ncluster_id&quot;</text>
<text x="1568.6875" y="428.55" text-anchor="middle" dy="0.35em" font-size="13" font-weight="500" fill="var(--_text)">&quot;New UUID\ncluster_id&quot;</text>
<text x="1492.1625" y="584.55" text-anchor="middle" dy="0.35em" font-size="13" font-weight="500" fill="var(--_text)">&quot;UpdateEmbedding\n(embedding + cluster_id)&quot;</text>
<text x="488.60000000000014" y="428.55" text-anchor="middle" dy="0.35em" font-size="13" font-weight="500" fill="#fff">&quot;GET /clusters\n(cluster summaries)&quot;</text>
<text x="834.1750000000002" y="428.55" text-anchor="middle" dy="0.35em" font-size="13" font-weight="500" fill="#fff">&quot;GET /clusters/{id}/members\n(cluster items)&quot;</text>
<text x="689.9875000000002" y="584.55" text-anchor="middle" dy="0.35em" font-size="13" font-weight="500" fill="var(--_text)">&quot;Cluster Handler&quot;</text>
<text x="661.3875" y="775.05" text-anchor="middle" dy="0.35em" font-size="13" font-weight="500" fill="#fff">&quot;user_feedback\n─────────────\nid\ncontent\nenriched_title\nenriched_attrs\nembedding VECTOR(1536)\ncluster_id UUID&quot;</text>
</svg>